/* XPM */
static char *result[] = {
/* columns rows colors chars-per-pixel */
"64 64 194 2 ",
"   c #040406",
".  c #050609",
"X  c #09060D",
"o  c #0C0B0C",
"O  c #010611",
"+  c #0B0C14",
"@  c #01091D",
"#  c #0C0E1C",
"$  c #02041B",
"%  c #0C121D",
"&  c #06131C",
"*  c #121213",
"=  c #11131D",
"-  c #18181E",
";  c #180C1A",
":  c #251E1B",
">  c #070923",
",  c #090B24",
"<  c #031424",
"1  c #051A28",
"2  c #0C1A29",
"3  c #091525",
"4  c #131523",
"5  c #151926",
"6  c #1A1A25",
"7  c #1F142A",
"8  c #141A2A",
"9  c #1A1C2B",
"0  c #171625",
"q  c #1A1D34",
"w  c #221D2C",
"e  c #22152A",
"r  c #192030",
"t  c #1E203F",
"y  c #11222E",
"u  c #24252C",
"i  c #2A2A2B",
"p  c #262629",
"a  c #212332",
"s  c #272B3B",
"d  c #352C34",
"f  c #362331",
"g  c #2B3239",
"h  c #34353B",
"j  c #353536",
"k  c #4F131D",
"l  c #4A111C",
"z  c #411C27",
"x  c #5E1D2E",
"c  c #6C1929",
"v  c #452628",
"b  c #442534",
"n  c #442836",
"m  c #4D2736",
"M  c #572B39",
"N  c #5E2E3D",
"B  c #582731",
"V  c #473837",
"C  c #583238",
"Z  c #57222D",
"A  c #602F3E",
"S  c #6B2733",
"D  c #65313F",
"F  c #4E4138",
"G  c #1D2042",
"H  c #1B3B55",
"J  c #242E43",
"K  c #2A2F44",
"L  c #2A3045",
"P  c #2C344D",
"I  c #223941",
"U  c #333444",
"Y  c #383A47",
"T  c #3B3C49",
"R  c #32374D",
"E  c #263C55",
"W  c #2B3C55",
"Q  c #2E3651",
"!  c #353C55",
"~  c #373F58",
"^  c #413144",
"/  c #593546",
"(  c #5E3E53",
")  c #463D55",
"_  c #6A3240",
"`  c #753543",
"'  c #743D47",
"]  c #603F54",
"[  c #3F404A",
"{  c #394662",
"}  c #434349",
"|  c #5F4055",
" . c #51525B",
".. c #69404D",
"X. c #625543",
"o. c #624055",
"O. c #724155",
"+. c #4F5363",
"@. c #565661",
"#. c #595B65",
"$. c #5E626B",
"%. c #65727A",
"&. c #9B1525",
"*. c #9C242F",
"=. c #822A3A",
"-. c #9F243C",
";. c #9E2934",
":. c #A1202D",
">. c #A42F39",
",. c #9C2541",
"<. c #863B49",
"1. c #873B4A",
"2. c #9B2F52",
"3. c #9C364D",
"4. c #A12241",
"5. c #A12944",
"6. c #A52C49",
"7. c #A33A4C",
"8. c #A33346",
"9. c #A63A51",
"0. c #9D414F",
"q. c #844255",
"w. c #894B58",
"e. c #9C4352",
"r. c #904455",
"t. c #A54655",
"y. c #A84755",
"u. c #AA4856",
"i. c #AA4A5C",
"p. c #A74857",
"a. c #946C50",
"s. c #B2664F",
"d. c #AA4C60",
"f. c #AD5767",
"g. c #AF5867",
"h. c #B26873",
"j. c #C86958",
"k. c #CE765B",
"l. c #D5755C",
"z. c #DF7D5E",
"x. c #E47C5E",
"c. c #BC835C",
"v. c #E1805E",
"b. c #D9996C",
"n. c #E38460",
"m. c #E38862",
"M. c #E79669",
"N. c #C6A566",
"B. c #D1AE70",
"V. c #D8B573",
"C. c #DCB875",
"Z. c #DBA66D",
"A. c #EDA86F",
"S. c #ECAC71",
"D. c #E4A974",
"F. c #EEB376",
"G. c #E2BD78",
"H. c #F2BC79",
"J. c #F1BB77",
"K. c #E4C17A",
"L. c #F3C27C",
"P. c #F4CA7E",
"I. c #F9CF7D",
"U. c #F8CD75",
"Y. c #4D7DB7",
"T. c #4771A3",
"R. c #4E81B9",
"E. c #66A8B8",
"W. c #538DCE",
"Q. c #5693D5",
"!. c #5796D9",
"~. c #5692CE",
"^. c #73BAD1",
"/. c #5DA4EF",
"(. c #5EA5F2",
"). c #5FA8F4",
"_. c #61AAF3",
"`. c #61ACF9",
"'. c #77C9D1",
"]. c #F6CD81",
"[. c #F8CF82",
"{. c #F7D087",
"}. c #FBD385",
"|. c #F9D48A",
" X c #F2CC9E",
".X c #88BBC4",
"XX c #95D2D9",
"oX c #86DBF4",
"OX c #89DEF8",
"+X c #90EFF5",
"@X c #93F2F9",
"#X c #A6EEF5",
"$X c #A8F1F9",
"%X c None",
/* pixels */
"%X%X%X%X%X%X%X%X%X%X%X%X%X%X%X%X%X%X%X%X%X%X%X%X%X%X%X%X%X%X%X%X%X%X%X%X%X%X%X%X%X%X%X%X%X%X%X%X%X%X%X%X%X%X%X%X%X%X%X%X%X%X%X%X",
"%X%X%X%X%X%X%X%X%X%X%X%X%X%X%X%X%X%X%X%X%X%X%X%X%X%X%X%X%X%X%X%X%X%X%X%X%X%X%X%X%X%X%X%X%X%X%X%X%X%X%X%X%X%X%X%X%X%X%X%X%X%X%X%X",
"%X%X%X%X%X%X%X%X%X%X%X%X%X%X%X%X%X%X%X%X%X%X%X%X%X%X%X%X%X%X%X%X%X%X%X%X%X%X%X%X%X%X%X%X%X%X%X%X%X%X%X%X%X%X%X%X%X%X%X%X%X%X%X%X",
"%X%X%X%X%X%X%X%X%X%X%X%X%X%X%X%X%X%X%X%X%X%X%X%X%X%X%X%X%X%X%X%X%X%X%X%X%X%X%X%X%X%X%X%X%X%X%X%X%X%X%X%X%X%X%X%X%X%X%X%X%X%X%X%X",
"%X%X%X%X%X%X%X%X%X%X%X%X%X%X%X%X%X%X%X%X%X%X%X%X%X%X%X%X%X%X%X%X%X%X%X%X%X%X%X%X%X%X%X%X%X%X%X%X%X%X%X%X%X%X%X%X%X%X%X%X%X%X%X%X",
"%X%X%X%X%X%X%X%X%X%X%X%X%X%X%X%X%X%X%X%X%X%X%X%X%X%X%X%X%X%X%X%X%X%X%X%X%X%X%X%X%X%X%X%X%X%X%X%X%X%X%X%X%X%X%X%X%X%X%X%X%X%X%X%X",
"%X%X%X%X%X%X%X%X%X%X%X%X%X%X%X%X%X%X%X%X%X%X%X%X%X%X%X%X%X%X%X%X%X%X%X%X%X%X%X%X%X%X%X%X%X%X%X%X%X%X%X%X%X%X%X%X%X%X%X%X%X%X%X%X",
"%X%X%X%X%X%X%X%X%X%X%X%X%X%X%X%X%X%X%X%X%X%X%X%X%X%X%X%X%X%X%X%X%X%X%X%X%X%X%X%X%X%X%X%X%X%X%X%X%X%X%X%X%X%X%X%X%X%X%X%X%X%X%X%X",
"%X%X%X%X%X%X%X%X%X%X%X%X%X%X%X%X%X%X%X%X%X%X%X%X%X%X%X{.I.{.{.{.{.{.{.I.|.%X%X%X%X%X%X%X%X%X%X%X%X%X%X%X%X%X%X%X%X%X%X%X%X%X%X%X",
"%X%X%X%X%X%X%X%X%X%X%X%X%X%X%X%X%X%X%X%X%X%X%X%X%X%X%X{.U.I.I.I.I.I.I.U.}.%X%X%X%X%X%X%X%X%X%X%X%X%X%X%X%X%X%X%X%X%X%X%X%X%X%X%X",
"%X%X%X%X%X%X%X%X%X%X%X%X%X%X%X%X%X%X%X%X%X%X%X%X%X%X XF.S.S.F.D.b.b.D.S.D.%X%X%X%X%X%X%X%X%X%X%X%X%X%X%X%X%X%X%X%X%X%X%X%X%X%X%X",
"%X%X%X%X%X%X%X%X%X%X%X%X;.-.5.5.,.6.6.,.6.=.- p N.}.J.n.z.z.v.l.9.2.j.v.k.v = - * j %X%X%X%X%X%X%X%X%X%X%X%X%X%X%X%X%X%X%X%X%X%X",
"%X%X%X%X%X%X%X%X%X%X%X%X-.8.3.8.7.7.7.7.7.=.; : N.}.J.v.z.v.v.l.p.3.j.m.k.v $ 4 . g %X%X%X%X%X%X%X%X%X%X%X%X%X%X%X%X%X%X%X%X%X%X",
"%X%X%X%X%X%X%X%X%X%Xh.h.t.9.t.t.t.t.e.t.u.<.e w c.A.A.J.J.F.J.D.k.j.M.H.Z.V , 9 # u %X%X%X%X%X%X%X%X%X%X%X%X%X%X%X%X%X%X%X%X%X%X",
"%X%X%X%X%X%X%X%X%X0.&.7.t.t.t.t.t.t.t.t.u.<.7 e s.x.M.[.}.{.}.L.m.z.F.|.K.F , 9 9 4   . %X%X%X%X%X%X%X%X%X%X%X%X%X%X%X%X%X%X%X%X",
"%X%X%X%X%X%X%X%X%Xi.-.e.t.t.t.t.t.t.t.t.p.<.7 e s.l.M.P.I.{.{.L.M.m.F.|.G.V , 9 9 9 4 . %X%X%X%X%X%X%X%X%X%X%X%X%X%X%X%X%X%X%X%X",
"%X%X%X%X%X%X%X%X%Xd.5.t.t.t.t.t.t.t.t.t.p.1.9 9 C B a.P.{.{.I.].L.L.].}.G.F > 9 9 9 9 . %X%X%X%X%X%X%X%X%X%X%X%X%X%X%X%X%X%X%X%X",
"%X%X%X%X%X%X%X%X%Xd.5.t.t.t.e.t.t.t.e.t.t.1.w 2 > $ X.].}.}.}.}.}.|.}.}.K.V > 9 9 9 6 . %X%X%X%X%X%X%X%X%X%X%X%X%X%X%X%X%X%X%X%X",
"%X%X%X%X%X%X%X%X%Xd.,.t.t.t.t.t.t.t.t.t.t.1.w 8 9 > X.B.V.V.V.V.C.V.V.C.N.V > 9 9 9 6   %X%X%X%X%X%X%X%X%X%X%X%X%X%X%X%X%X%X%X%X",
"%X%X%X%X%X%X%X%X%Xi.5.t.t.t.t.t.t.t.t.t.t.1.w 8 8 8 u d j d d d d d d d d q 8 9 9 9 9   %X%X%X%X%X%X%X%X%X%X%X%X%X%X%X%X%X%X%X%X",
"%X%X%X%X%X%X%X%X%Xd.5.t.t.t.t.t.t.t.t.t.i.1.w 8 2 1 < $ @ @ $ $ $ @ @ $ @ < 1 2 9 9 8 . %X%X%X%X%X%X%X%X%X%X%X%X%X%X%X%X%X%X%X%X",
"%X%X%X%X%X%X%X%X%Xi.5.t.t.t.t.t.t.t.t.1.<.D 9 8 m A / A N N A / A A A / A N _ f 8 9 6 . %X%X%X%X%X%X%X%X%X%X%X%X%X%X%X%X%X%X%X%X",
"%X%X%X%X%X%X%X%X%Xd.5.t.t.t.t.t.t.t.t.M 6 9 2 9 <.y.t.t.t.t.t.t.t.t.t.t.t.t.t.` 8 8 6   %X%X%X%X%X%X%X%X%X%X%X%X%X%X%X%X%X%X%X%X",
"%X%X%X%X%X%X%X%X%Xi.5.t.t.t.t.t.t.t.t.m < 2 2 9 1.u.y.p.t.t.t.i.t.y.t.y.p.t.y.` 8 8 6 . %X%X%X%X%X%X%X%X%X%X%X%X%X%X%X%X%X%X%X%X",
"%X%X%X%X%X%X%X%X%X' x D _ _ _ _ _ _ _ ^ J K J K ( O.O.O.' O.O.O.O.O.O.O.O.O.O./ J K K q +.%X%X%X%X%X%X%X%X%X%X%X%X%X%X%X%X%X%X%X",
"%X%X%X%X%X%X%X%X%Xg + 5 8 8 2 8 8 4 8 P ~ ! ~ ! W E E E E E W E W W E E E W E W ~ ! ! ! Q G t 9 6 e 6 6 6 = @.%X%X%X%X%X%X%X%X%X",
"%X%X%X%X%X%X%X%X%Xh + 8 8 8 8 9 8 8 9 P ~ ! ! ! ! ! ! ! ! ! ! ! W ! ! ! ! W ~ ! ! ! ! ! Q Q Q Q R ! Q Q R I %.%X%X%X%X%X%X%X%X%X",
"%X%X%X%X%X%X%X%X%Xh + 9 9 9 9 9 9 9 9 P ~ ! ! ! ! ! ! ! ! ! ! ! ! ! ! ! ! ! ! ! ! ! ! ! ! R { Y.Q.W.W.~.^.'.XX%X%X%X%X%X%X%X%X%X",
"%X%X%X%X%X%X%X%X%Xh + q 9 9 9 9 9 9 r R { ! ! ! ! ! ! ! ! ! ! ! ! ! ! ! ! ! ! ! ! ! ! ! ! U { !.`.).)._.OX@X$X%X%X%X%X%X%X%X%X%X",
"%X%X%X%X%X%X%X%X%Xh + 9 9 9 9 9 9 9 9 L R R ! ! ! ! ! ! ! ! ! ~ ! ~ ! ! ! ! ! ! ! ! ! ! ! Y { Q.)././._.oX+X$X%X%X%X%X%X%X%X%X%X",
"%X%X%X%X%X%X%X%X%Xh + 4 9 9 9 9 9 9 9 r r J ! ! ! ! ! ! ! ! ! ! ! ! ! ~ ! ! ! ! ! ! ! ! ~ U { Q./././._.oX+X#X%X%X%X%X%X%X%X%X%X",
"%X%X%X%X%X%X%X%X%Xu   + 9 9 9 9 2 1 1 < & y H E W ! ! ! ! ! ! ! ! ! ! ! ! ! ! ! ! ! ! ~ ~ U { Q.)././._.oX+X#X%X%X%X%X%X%X%X%X%X",
"%X%X%X%X%X%X%X%X%X%X%X} = 0 9 8 f M M M M / ] ] ) ! ! ! ! ! ! ! ! ! ! ! ! ! ! ! ! ! ! ! ! U { !._././._.oX+X#X%X%X%X%X%X%X%X%X%X",
"%X%X%X%X%X%X%X%X%X%X%X%Xo # 8 2 N e.t.e.t.e.t.e.] E ! ! ! ! ! ! ! ! ! ! ! ! ! ! ! ! ! ! ~ U { !._.(./._.oX+X$X%X%X%X%X%X%X%X%X%X",
"%X%X%X%X%X%X%X%X%X%X%X%X* . % 2 A p.t.y.t.t.t.t.] W ! ! ! ! ! ! ! ! ! ! ! ! ! ! ! ~ ! ! ~ U { !.`._./._.OX@X$X%X%X%X%X%X%X%X%X%X",
"%X%X%X%X%X%X%X%X%X%X%X%X%X%Xh + N t.t.t.t.t.t.t.] E ! ! ! ! ! ! ! ! ! ! ! ! ! Y K K K K K s Q T.Y.Y.Y.Y.E.E..X%X%X%X%X%X%X%X%X%X",
"%X%X%X%X%X%X%X%X%X%X%X%X%X%X}   Z t.t.t.t.t.t.t.( H W W W W W W W E W W ! E W J 9 5 9 9 9 9 9 a t a a t w 9 $.%X%X%X%X%X%X%X%X%X",
"%X%X%X%X%X%X%X%X%X%X%X%X%X%X} - N t.t.t.t.t.t.t.o.W W ~ ! ! ~ ! ! ! ! ! ! ! ! K 5 9 9 9 9 9 9 a u i i i u u %X%X%X%X%X%X%X%X%X%X",
"%X%X%X%X%X%X%X%X%X%X%X%X%X%X%X%X%X9.0.t.t.t.t.t.r.q.q.q.q.q.q.1.q.q.q.q.q.q.q._ 8 9 9 9 9 # i %X%X%X%X%X%X%X%X%X%X%X%X%X%X%X%X%X",
"%X%X%X%X%X%X%X%X%X%X%X%X%X%X%X%X%X8.7.p.p.p.t.p.p.u.u.u.p.p.t.y.y.y.u.u.u.p.p.S . . . .     p %X%X%X%X%X%X%X%X%X%X%X%X%X%X%X%X%X",
"%X%X%X%X%X%X%X%X%X%X%X%X%X%X%X%X%X,.8.0.e.e.e.e.e.e.e.0.e.t.t.t.t.t.t.3.e.e.3.' i i i i i i } %X%X%X%X%X%X%X%X%X%X%X%X%X%X%X%X%X",
"%X%X%X%X%X%X%X%X%X%X%X%X%X%X%X%X%Xl f n n b b f b b b b b <.y.t.t.t.` n n v z %X%X%X%X%X%X%X%X%X%X%X%X%X%X%X%X%X%X%X%X%X%X%X%X%X",
"%X%X%X%X%X%X%X%X%X%X%X%X%X%X%X%X%Xo & 1 1 @ O O O O O . . c 4.4.4.-.Z 1 1 < & %X%X%X%X%X%X%X%X%X%X%X%X%X%X%X%X%X%X%X%X%X%X%X%X%X",
"%X%X%X%X%X%X%X%X%X%X%X%X%X%X%X%X%Xo % 9 = g U h L h U L h w.g.g.g.g.] 4 5 0 = %X%X%X%X%X%X%X%X%X%X%X%X%X%X%X%X%X%X%X%X%X%X%X%X%X",
"%X%X%X%X%X%X%X%X%X%X%X%X%X%X%X%X%Xo % 4 +  .%X%X%X%X%X%X%X%X%X%X%X%X%X= 3 # + %X%X%X%X%X%X%X%X%X%X%X%X%X%X%X%X%X%X%X%X%X%X%X%X%X",
"%X%X%X%X%X%X%X%X%X%X%X%X%X%X%X%X%Xo @ + * %X%X%X%X%X%X%X%X%X%X%X%X%X%X% + o + %X%X%X%X%X%X%X%X%X%X%X%X%X%X%X%X%X%X%X%X%X%X%X%X%X",
"%X%X%X%X%X%X%X%X%X%X%X%X%X%X%X%X%Xk Z %X%X%X%X%X%X%X%X%X%X%X%X%X%X%X%Xk A %X%X%X%X%X%X%X%X%X%X%X%X%X%X%X%X%X%X%X%X%X%X%X%X%X%X%X",
"%X%X%X%X%X%X%X%X%X%X%X%X%X%X%X%X%X:.;.%X%X%X%X%X%X%X%X%X%X%X%X%X%X%X%X&.6.%X%X%X%X%X%X%X%X%X%X%X%X%X%X%X%X%X%X%X%X%X%X%X%X%X%X%X",
"%X%X%X%X%X%X%X%X%X%X%X%X%X%X%X%X%X>.8.%X%X%X%X%X%X%X%X%X%X%X%X%X%X%X%X:.9.%X%X%X%X%X%X%X%X%X%X%X%X%X%X%X%X%X%X%X%X%X%X%X%X%X%X%X",
"%X%X%X%X%X%X%X%X%X%X%X%X%X%X%X%X%X%X%X%X%X%X .@.$.#.#.#.#.#. .%X%X%X%X%X%X%X%X%X%X%X%X%X%X%X%X%X%X%X%X%X%X%X%X%X%X%X%X%X%X%X%X%X",
"%X%X%X%X%X%X%X%X%X%X%X%X%X%X%X%X%X%X%Xh o + 9 a u a a a r a a 5 o * %X%X%X%X%X%X%X%X%X%X%X%X%X%X%X%X%X%X%X%X%X%X%X%X%X%X%X%X%X%X",
"%X%X%X%X%X%X%X%X%X%X%X%X%X%X%X%X%X%X%X} p 9 9 9 9 9 9 9 9 9 9 9 9 u %X%X%X%X%X%X%X%X%X%X%X%X%X%X%X%X%X%X%X%X%X%X%X%X%X%X%X%X%X%X",
"%X%X%X%X%X%X%X%X%X%X%X%X%X%X%X%X%X%X%X%X%X#.a 9 9 9 9 9 9 9 9 U %X%X%X%X%X%X%X%X%X%X%X%X%X%X%X%X%X%X%X%X%X%X%X%X%X%X%X%X%X%X%X%X",
"%X%X%X%X%X%X%X%X%X%X%X%X%X%X%X%X%X%X%X%X%X%Xa 9 9 9 9 9 9 9 9 T %X%X%X%X%X%X%X%X%X%X%X%X%X%X%X%X%X%X%X%X%X%X%X%X%X%X%X%X%X%X%X%X",
"%X%X%X%X%X%X%X%X%X%X%X%X%X%X%X%X%X%X%X%X%X%X} Y Y T T T T T Y @.%X%X%X%X%X%X%X%X%X%X%X%X%X%X%X%X%X%X%X%X%X%X%X%X%X%X%X%X%X%X%X%X",
"%X%X%X%X%X%X%X%X%X%X%X%X%X%X%X%X%X%X%X%X%X%X%X%X%X%X%X%X%X%X%X%X%X%X%X%X%X%X%X%X%X%X%X%X%X%X%X%X%X%X%X%X%X%X%X%X%X%X%X%X%X%X%X%X",
"%X%X%X%X%X%X%X%X%X%X%X%X%X%X%X%X%X%X%X%X%X%X%X%X%X%X%X%X%X%X%X%X%X%X%X%X%X%X%X%X%X%X%X%X%X%X%X%X%X%X%X%X%X%X%X%X%X%X%X%X%X%X%X%X",
"%X%X%X%X%X%X%X%X%X%X%X%X%X%X%X%X%X%X%X%X%X%X%X%X%X%X%X%X%X%X%X%X%X%X%X%X%X%X%X%X%X%X%X%X%X%X%X%X%X%X%X%X%X%X%X%X%X%X%X%X%X%X%X%X",
"%X%X%X%X%X%X%X%X%X%X%X%X%X%X%X%X%X%X%X%X%X%X%X%X%X%X%X%X%X%X%X%X%X%X%X%X%X%X%X%X%X%X%X%X%X%X%X%X%X%X%X%X%X%X%X%X%X%X%X%X%X%X%X%X",
"%X%X%X%X%X%X%X%X%X%X%X%X%X%X%X%X%X%X%X%X%X%X%X%X%X%X%X%X%X%X%X%X%X%X%X%X%X%X%X%X%X%X%X%X%X%X%X%X%X%X%X%X%X%X%X%X%X%X%X%X%X%X%X%X",
"%X%X%X%X%X%X%X%X%X%X%X%X%X%X%X%X%X%X%X%X%X%X%X%X%X%X%X%X%X%X%X%X%X%X%X%X%X%X%X%X%X%X%X%X%X%X%X%X%X%X%X%X%X%X%X%X%X%X%X%X%X%X%X%X",
"%X%X%X%X%X%X%X%X%X%X%X%X%X%X%X%X%X%X%X%X%X%X%X%X%X%X%X%X%X%X%X%X%X%X%X%X%X%X%X%X%X%X%X%X%X%X%X%X%X%X%X%X%X%X%X%X%X%X%X%X%X%X%X%X",
"%X%X%X%X%X%X%X%X%X%X%X%X%X%X%X%X%X%X%X%X%X%X%X%X%X%X%X%X%X%X%X%X%X%X%X%X%X%X%X%X%X%X%X%X%X%X%X%X%X%X%X%X%X%X%X%X%X%X%X%X%X%X%X%X",
"%X%X%X%X%X%X%X%X%X%X%X%X%X%X%X%X%X%X%X%X%X%X%X%X%X%X%X%X%X%X%X%X%X%X%X%X%X%X%X%X%X%X%X%X%X%X%X%X%X%X%X%X%X%X%X%X%X%X%X%X%X%X%X%X"
};
