/* XPM */
static char *result[] = {
/* columns rows colors chars-per-pixel */
"64 64 157 2 ",
"   c #070D1E",
".  c #090E1E",
"X  c #0C101F",
"o  c #12131F",
"O  c #1A171F",
"+  c #1B181F",
"@  c #070D20",
"#  c #090E20",
"$  c #0E1120",
"%  c #0F1922",
"&  c #151522",
"*  c #1B1622",
"=  c #131B24",
"-  c #1B1B24",
";  c #241C24",
":  c #291D24",
">  c #331F24",
",  c #162326",
"<  c #192627",
"1  c #152429",
"2  c #192529",
"3  c #1B2C2B",
"4  c #1F2F30",
"5  c #1F3031",
"6  c #272024",
"7  c #282024",
"8  c #212D2D",
"9  c #342424",
"0  c #3B2526",
"q  c #3F2824",
"w  c #25312B",
"e  c #272F32",
"r  c #243531",
"t  c #253C34",
"y  c #412527",
"u  c #422B26",
"i  c #442729",
"p  c #452829",
"a  c #4C2A29",
"s  c #542D29",
"d  c #4C3127",
"f  c #5C3926",
"g  c #61352A",
"h  c #6A362C",
"j  c #643E29",
"k  c #743B2F",
"l  c #7D3F2F",
"z  c #773B31",
"x  c #7D3E30",
"c  c #2B4334",
"v  c #2F4B37",
"b  c #2A443A",
"n  c #2D4B3C",
"m  c #304D37",
"M  c #314E3E",
"N  c #33523D",
"B  c #39553B",
"V  c #3A5C3D",
"C  c #594B39",
"Z  c #5B543C",
"A  c #6F4429",
"S  c #73452B",
"D  c #684133",
"F  c #625D3B",
"G  c #685C38",
"H  c #745A37",
"J  c #304E40",
"K  c #335541",
"L  c #385340",
"P  c #365B43",
"I  c #395E43",
"U  c #3C6244",
"Y  c #3F6847",
"T  c #3C6548",
"R  c #3F6A48",
"E  c #416A45",
"W  c #426D49",
"Q  c #467247",
"!  c #487446",
"~  c #467149",
"^  c #48764A",
"/  c #4D7D4C",
"(  c #803F31",
")  c #854E2C",
"_  c #884F2D",
"`  c #87502D",
"'  c #8A522D",
"]  c #95542E",
"[  c #99572F",
"{  c #9B592F",
"}  c #8B4432",
"|  c #8E4A32",
" . c #934732",
".. c #964A36",
"X. c #9B4B35",
"o. c #865137",
"O. c #875539",
"+. c #935430",
"@. c #9B5433",
"#. c #9E5A30",
"$. c #A54E36",
"%. c #A84E37",
"&. c #A74F38",
"*. c #AA4F39",
"=. c #AD5337",
"-. c #A55E30",
";. c #AB5F34",
":. c #A65038",
">. c #AD5239",
",. c #B15537",
"<. c #B45C36",
"1. c #B85E37",
"2. c #B15539",
"3. c #B55A38",
"4. c #B95C39",
"5. c #94603A",
"6. c #AE6134",
"7. c #A36B39",
"8. c #AE6C39",
"9. c #B56535",
"0. c #BD6436",
"q. c #BD6936",
"w. c #BE6138",
"e. c #B56A3B",
"r. c #C26636",
"t. c #C86737",
"y. c #C46C36",
"u. c #CA6D37",
"i. c #C36539",
"p. c #C56C38",
"a. c #CC6C3A",
"s. c #D16F3B",
"d. c #CD7237",
"f. c #CD7439",
"g. c #C2793D",
"h. c #CD7C3C",
"j. c #D17337",
"k. c #D37439",
"l. c #D9763A",
"z. c #D47A3A",
"x. c #DC7B3A",
"c. c #E37D3B",
"v. c #E87F3B",
"b. c #CF7E43",
"n. c #51834E",
"m. c #508151",
"M. c #558850",
"N. c #D1823D",
"B. c #DB823E",
"V. c #E5823D",
"C. c #E0883F",
"Z. c #D58742",
"A. c #DB8C44",
"S. c #DC9444",
"D. c #E79444",
"F. c #EAA64B",
"G. c #ECAB4D",
/* pixels */
".   #   . . $ o & * & & & * * & & & * & & & % # # @ $ % % X . % % # . . .     X & & & & & & & & & & & * & & & & # # @ @ # . . @ ",
". # . # # . X & * & & & & & & & = * & & & & $ $ # # % 1 < , # , < , X . .   . X & & & - & & * & & & & & & & & & # # # @ @ #   . ",
"# . . @ . @ # & o * & * & * & & & & & & & & $ $     3 V R c % v B m X .       . & & & & & & * & & & & & & & & & # # # # @   $   ",
". . @ . . @ o & & & & & & & * & & & & & & - = = 1 , v ! n.N 1 V R V 3 1 < , X X & & & & & & & & & - & & & & & & $ # # # .     @ ",
". @ . . . . $ & - & & & & & & & & & O & = o 5 5 n V Q / n.T n U U U n V V c ,   & & & & & & & & & & & & & & & & X . . .     .   ",
"# . . . . . # & & & & & * = & & & & & & o % 5 b P ~ n.n./ Y K U U P K Y ~ m <   = & & & - & & & - * & & & & & & X . . . . .   . ",
". . . . . # $ $ & & $ % & & & & % % & = o = 5 b P ^ n.M./ W P U U U P W ^ m < X & & $ & & & % % & & & & & & $ $ X . . X . X X X ",
"& . & . $ $ o $ # # X X X # # $ X X X X X X 5 b P ^ m.n./ W P U U U P Q ^ N 3 X # $ $ $ # # X X # # # # $ $ # $ . o X $ o $ o X ",
"& & & & & o $ $ # # . .   . # .   . .   . $ 5 b P T E W / W P I P P P R ~ B 8 # # . . . . . .   .   . # . . . . & & & & & & & & ",
"& & & * & & $ # . . . .   @ . .       X . . 2 t J P I E / W P P P P P ~ ^ B 8 & o . . .   . . .   # . . . . . . & & * & & & & & ",
"& & & & & & $ # . . @ . . @ . . . .   .   . = 3 t K U T / ~ U P K P U ^ / B e & .   . . . @ . . .   # .   . . # X & & & & & & & ",
"* & & & & & o # . # . . . . . . . . . .   X % % 2 K I Y n.m./ P P U / m./ B 8 $ . . . .   . . . . # . . . . . @ & & & & & & & & ",
"& & * & & & o #   . . . . . . . . . . . . . # # = J I E m.M.n.I K P n.^ V c 2 $ . # . . .   . . . . . . # @ # # & & * & & - & & ",
"& & * & & & o #   . . .   . . . . .   . . . # & - J P T / M.n.U P I n.B 8 - & # . .   .   . . . . . . . # # .   & & & & - & & * ",
"* & & & & & o . # . . . . # . @ . . . . . . $ $ - 3 b K U ^ m.I N M v w - = & & # # . . X . . . . . . . @ # @ @ $ * & & & & & & ",
"& & * & & & $ #   # . . . . @ @ . . . . . . # & & - r K L ~ m.I K b 3 - * * % $ . . # .     . . . . # . # # @ @ & & & & & & * & ",
"& & & & * & & @ # . . .   .   . . . . . . . . o & & e n K W / I J b - & & & & $ X   X . . @ . . . . . . # . . . o * & & & & & & ",
"& & & & & & & #   # # . . .     . . . . . . . o & & 3 n P W / I M b - & & & & & @     . . . .   . . . . . . # . $ o & * * & & * ",
"& * & * & & $ @ @ . . .   . .   . . .   . . . o & & 4 n P T W I K b - & & & & $ X     . . . @ X . . . . . . . . o * & & & & & & ",
"& & & & & & & # . . . . . . . . . . . . . . . * * ; r J P I P I B b ; - ; * & & . @ . .   .     . . # . . . . . & & & & * & & * ",
"& & & & & & $ # . . . . . @ . .   # . . . o > s z z D C Z F F F G H +.+.' f 7 o @ @ X . .   X X . . . . . . . . & * & & & & * & ",
"& & * & & & & # . . . # . . . @     # . . * a k X.X...O.O.5.5.7.7.8.p.d.q.) d ; X .   . .       . . . . # . . . $ & & & & & & & ",
"& & & & & & # # . . @ . . . # # . . . . * > h ( =.4.3.3.4.k.V.V.c.c.c.c.l.-.S u X   . . . X . @ . . . . . . . . $ & * * & * & & ",
"$ & # # & $ # $ o $ $ $ # o $ $ $ $ o . > x %.*.>.l.t.<.>.b.D.e.<.r.x.c.c.x.k.6.- $ $ % $ $ $ $ $ $ $ $ $ $ $ $ $ $ $ # # $ # $ ",
"# # # # . . X o $ & & o & $ $ $ $ o o & p } &.>.>.a.t.0.i.A.F.e.q.a.c.c.c.c.c.u.; & & & & $ & & $ & & $ $ & $ $ $ # . . X . . . ",
"@ @ # # . . X & * & & & & * * & * & & & p } &.>.>.4.i.d.c.D.F.h.z.c.c.c.c.c.c.p.6 & & & & & & & & & * - & & & & # #   . . # . . ",
"# @ # #     $ & & & & & - & & & & & & o p } &.>.=.1.i.j.c.B.N.z.l.c.c.c.c.c.c.a.6 & & & & & * & * & & & & = $ & $ @ #     . . . ",
"  @ @ #     $ & * & & * & & & & & & & & p } &.2.=.p.j.x.x.x.B.x.c.c.c.c.c.c.c.y.6 & & = & & = & * & & & - & & & # # . . . . . . ",
".   .     $ $ o & & & & & & & & & * - & i } *.*.=.k.x.c.c.c.V.c.V.V.V.V.c.c.c.y.: & - & & - * & & = & & & & & & . . . . . . . . ",
"  # . #     $ o & & * & & & & & & & & & i } :.2.>.3.w.u.x.c.x.N.S.G.G.D.c.c.V.y.6 & & & & & & & & & & & * & & $ X . # @ . . . . ",
"#   #   . . . o * & & & & & & & & & & & p } :.*.>.4.i.j.c.c.c.z.B.S.S.C.c.c.v.y.6 & & & & & & & = & & & & & & o X . . . . . . . ",
"  #   # . . X & * o & & * * * & & - & = p } :.*.=.p.d.l.x.c.x.z.f.h.f.l.c.c.c.r.6 & & & & & - & & & & & * * & o X . .   .   . . ",
". . . . . . . & & & & & & * & & & & & & i } &.>.,.r.d.l.c.l.h.z.x.c.c.c.c.j.j.;.; $ * & & & & * & & & & & & & & # # .   # .   X ",
". . . . . . . & & * & & & & & * & & & & p } &.>.,.1.r.d.c.B.S.z.x.V.c.c.x.y.w.[ ; = & & & & & * & & & & & & & & # @ # . . .     ",
". . . . . . . & & & * & & & & & & = & & p } &.>.=.,.0.p.l.D.G.h.z.c.c.c.k.0.1.X.; = - & & - & & - & & & & & & & # # # . . .     ",
". . . . . . . & & * & & & & & * & & & & p } &.>.,.l.j.i.w.Z.G.N.z.c.c.j.t.u.l.r.: & & & & & & & & & & - & & & $ # # # . . . . . ",
". . . . . . . & * * & & & * & & * & * & p } &.>.2.l.l.a.0.h.A.z.x.c.c.j.u.j.c.y.: & & & & & & & & & & & & & & & X . . . . . . . ",
". .   . . . o & & & * & & & & & & * & & i } &.>.2.l.x.k.d.f.f.l.c.c.c.l.j.l.c.y.; & & & & = & & & & & & & & & & X . . . . . . . ",
". . .   . . . & & & & & & & & & & & & & p } &.*.2.l.c.c.c.x.c.c.c.c.c.x.c.c.c.y.; & & & & - & & & & = & & & & & X . . # . . . . ",
"# # . # . X . $ & & $ & & o o $ $ & & % i } &.2.2.i.t.j.x.c.c.c.c.c.c.c.c.c.v.y.; $ & & & & & & & & $ & & & $ & X . . # . . . . ",
"# $ # # & # # & X o . o o . X o $ # # # 0 ( $.%.>.>.3.r.x.c.x.c.c.x.c.c.c.l.x.9.+ X o X $ X $ X o # & $ . & $ # o X $ X $ $ $ $ ",
"& & & - & & # # . . . . .   . . # . .   ; s l ..>.>.2.9.i.j.c.z.j.z.c.c.x.q.[ A o . . . . . . X . . . # . . . . o & & & & & & & ",
"& & & & & & & # . . .   . . . . .   .   $ : g ( =.<.1.1.0.k.c.h.h.h.f.x.l.{ j 9 . . . . . . . . . . .   . . . . & & & & & & = & ",
"& & & & & & $ # . . . . .   . . # . . . . o a ( =.0.0.w.y.j.c.Z.h.g.q.j.k.o.q & . . . . .       . . . . . .     $ & * & & & & & ",
"& & & * & & & . . . .     . . . . . . . # X a ( 3.l.c.c.c.c.c.N.g.8.2.a.l.| u $ . . . . . . . . . # . . . . # # & & * & - & & * ",
"& & & & & * o . . . . . . . . . . . . . . o a ( 2.i.s.k.c.c.c.B.z.k.s.b.l._ u # . . . . . .     .     .   . .   & & & - & & & & ",
"& & & & & & # . . . . .   .   . . . . . . o a ( >.3.w.d.x.c.c.c.c.c.c.c.k._ u & . . . .   X   X . @ .   . @ .   $ & & & & * - & ",
"* & & & * & o . . . . . . .   . . . . . . . a ( =.=.1.u.c.c.c.c.V.c.c.c.k.' u $ . # # . .       . . . # . . .   & & & & & & & & ",
"& & & & & & $ # # # . . . .   @   . . . . X a ( =.*.4.u.c.c.c.c.c.c.c.V.z.` p $ . . .   X @     . . . . . . .   o o & * & & & * ",
"* * & * & & $ # @ # # . . . . @ .   . . . X y h  .%.3.t.s.c.V.c.c.c.c.k.9.A 0 $ . . . . . . @ X . . . . .   X   o & & & & & & & ",
"& & & & & & $ @ # # @ # @ . . . . . . @ . . X * : ..,.2.2.b.G.z.l.V.c.@.d - & $ . . . .         . . . . . X . # o & & & & & & & ",
"& & * & & * $ # @ @ # . . . . . . . . . .   X $ :  .3.i.s.b.D.x.x.c.c.+.u * & & . @ . . . . X . . . .   . . .   & & & * & - & & ",
"& & & & & & $ # . . . . . . . . . .   . . . # $ ; ..4.a.x.c.c.c.V.c.v.] q * & # . . . . .   . . . . .   .   @ . & & & & & & & * ",
"& - & & & & & # . . . . . .   .   . .   . . o $ ; ..3.w.u.l.c.c.c.c.c.] q * & % @ .   .   . @ . . . . . .       & & & & * & & * ",
"& * & & & & # $ . .   . . # . . . . . # . . . o ; X.2.2.w.j.c.c.c.c.v.+.u - & o X . .   .   . .   . . . . .   @ $ & & & & = & & ",
"& & & & & & $ # . . . . . . . # . . . . . . $ $ * z ..%.<.i.k.l.l.k.9.S 7 * & X X .   X . . . . . . . . . . . $ $ & & & & & & & ",
"# & & $ $ & X . . o # # $ @ # . $ # # $ # # $ $ o & a } %.,.,.r.q.#.7 o X o X o X X . $ $ @ # # X . X X X . X . X o $ $ $ $ $ & ",
"# # . # . . X & & $ $ & & & & & & & & o & o $ $ . . y } =.3.i.j.y.{ O X X . . . o & & $ % & & & & & & o $ & % $ $ X . X $ X $ . ",
". . . # . # X & * & & & & & & & & & & * & & o # .   y } ,.i.a.l.y.[ O   . . . X & * & * & o * & & & & & & & o & $ . @ . . @     ",
"# . . # . . . & & & & & & & * & & & & & & & & # .   0 } 3.a.c.c.u.] O   .     X & & & & & & & & & & & & * & & & @ . . . .   . # ",
". . # . . . # & & & & = & & & & & & & * & * & $   @ * > s  .4. .f 9 X . . . @ X & & * & & & & & o & & & & * & o $ #   . . . . . ",
"# . @ . # . . & & & & & & & & * & & & & & & $ . @ .   . * s ( s ;   $ . .     X & & & & & * & & & * * o & & & & $   . . . . . . ",
". # . . # . $ & & & * & & & & & & & & & & & $ # . .   . o ; > ; o . .     .   $ o * & * * & & * & & & & & & & & @ . . . . . . . ",
"# . . @ @ # $ & & & & & * & * & & * & & * & & # @ . @ @ . X o o # . . . . # @   & & & & & & & & O & & * & & o % $ . . . . . @ . "
};
