/* XPM */
static char *result[] = {
/* columns rows colors chars-per-pixel */
"64 64 131 2 ",
"   c #8795A7",
".  c #8994A7",
"X  c #8792A8",
"o  c #8A96AB",
"O  c #8D99AE",
"+  c #989FA7",
"@  c #919CAF",
"#  c #8C97B0",
"$  c #8E9BB2",
"%  c #929EB3",
"&  c #97A0AE",
"*  c #95A1B4",
"=  c #9AA5B6",
"-  c #9EAAB7",
";  c #96A3B9",
":  c #9BA6B9",
">  c #9EA9BB",
",  c #A0A5A4",
"<  c #AAABAA",
"1  c #B9B5A7",
"2  c #A2A9B6",
"3  c #A3ACBC",
"4  c #A8AFBE",
"5  c #A7B1BE",
"6  c #A9B2BE",
"7  c #B1B2B1",
"8  c #B2B4BA",
"9  c #B7BBBD",
"0  c #BCBDBD",
"q  c #C1BEB5",
"w  c #C9C0A6",
"e  c #C7C1AD",
"r  c #CEC5AF",
"t  c #C5C1B2",
"y  c #CAC3B4",
"u  c #CFC9B7",
"i  c #C4C3BA",
"p  c #C8C6BB",
"a  c #CCC9BD",
"s  c #D2C7B1",
"d  c #D4CBB3",
"f  c #D8CDB2",
"g  c #D2CDBC",
"h  c #DDD2B6",
"j  c #D6D0BB",
"k  c #DAD2BC",
"l  c #E3D5B1",
"z  c #E5D8B6",
"x  c #E6D9BC",
"c  c #A3AEC2",
"v  c #A8AEC0",
"b  c #A6B1C3",
"n  c #ABB4C3",
"m  c #AFB8C6",
"M  c #ABB6C9",
"N  c #AEBACA",
"B  c #B3B7C5",
"V  c #B2BAC6",
"C  c #B8BDC3",
"Z  c #B4BDCA",
"A  c #B8BFCB",
"S  c #B2BDD0",
"D  c #B9BFD0",
"F  c #BEC2C4",
"G  c #B6C0CD",
"H  c #BBC3CD",
"J  c #B6C0D1",
"K  c #BCC5D2",
"L  c #BEC9D5",
"P  c #BDC7D9",
"I  c #BFCAD9",
"U  c #C3C4C0",
"Y  c #C8C7C4",
"T  c #C5C8C6",
"R  c #CDCCC4",
"E  c #C1C6CC",
"W  c #C5CACD",
"Q  c #CCCECD",
"!  c #D1CEC3",
"~  c #D6D2C3",
"^  c #D9D4C4",
"/  c #DED9C7",
"(  c #D3D3CB",
")  c #D9D7CA",
"_  c #DCDACD",
"`  c #C0C6D2",
"'  c #C3CBD4",
"]  c #C8CED5",
"[  c #C3CDDA",
"{  c #C8CFD9",
"}  c #CAD1D6",
"|  c #C6D0DC",
" . c #CBD3DB",
".. c #CFD9DF",
"X. c #D3D5D3",
"o. c #DDDCD4",
"O. c #D1D7DD",
"+. c #D3D9DE",
"@. c #DBDEDD",
"#. c #E9DDC2",
"$. c #E2DFCE",
"%. c #E1DED5",
"&. c #E1DFDB",
"*. c #DFE2DF",
"=. c #E8E2CC",
"-. c #E5E3D7",
";. c #E8E6D5",
":. c #E4E4DD",
">. c #EAE9DD",
",. c #C7D2E1",
"<. c #CDD5E1",
"1. c #CFD8E2",
"2. c #D0D6E3",
"3. c #D4DBE3",
"4. c #D9DEE4",
"5. c #D6DEE9",
"6. c #D7E0E4",
"7. c #DBE2E6",
"8. c #D7E0E8",
"9. c #DDE4E9",
"0. c #DFE9EA",
"q. c #E3E5E3",
"w. c #E6E9E5",
"e. c #EAEBE3",
"r. c #E1E6EB",
"t. c #E4EAED",
"y. c #E9EEEE",
"u. c #EBF0EF",
"i. c #E6ECF0",
"p. c #EAEEF1",
"a. c #ECF1F2",
/* pixels */
"{ i.a.a.u.a.a.a.a.a.u.a.t.Z K ' I 6.i.p.a.a.a.a.a.a.a.6.$ : Z p.a.u.a.a.a.a.a. .  # N a.a.7.H [ 3.t.H V A r.a.a.a.t.<.; # * P [ ",
"3.p.a.p.t. .` o.o.-.t.9.3.K { 1.3.9.t.a.a.a.a.a.t. .L G > b H a.a.a.a.a.a.t.7.[ 3 b N K  .} H  .9.u.2.}  .i.a.p.' G N b b b J [ ",
"t.p.t.r.O.n + y r g w...' [ 5.t.t.t.i.t.t.t.a.a.7.6 * ; M Z { p.a.u.a.t.r.3.| L H ] G $ N Z G 3.t.a.y.t.t.a.a.t.> O % Z J K G  .",
"a.a.] 3 * + , t g ) t. .H 3.r.p.a.a.t.] K [ u.a.9.m * * Z  .7.a.a.a.a.] V = V ' 3.8.{ > m G G H O.a.p.a.a.a.a.t.4 * : V H H ' 6.",
"i.i.H * O < e ^ %.w.p.q.4.r.t.t.0.r.7.H K | p.p.9.Z b M | 6.0.i.a.a.t.H 3 $ ' 7.t.y.7.}  .] H K <.a.a.p.a.u.t.7.N M Z X.+.6.9.t.",
"9.9.G * : i #.>.y.p.p.a.a.a.r.3. .3...H ' 1.a.r.3.m N J 1.8.9.9.t.i.8.Z > c 6.u.a.a.a.a.t.+.K { 5.u.a.p.a.a.9.} Z J <.y.a.a.a.a.",
"[ ,.K H 9.t.y.a.a.a.a.a.a.y.' 3 ; M K H 3.a.a.{ n * & : J ' [ [ r.t.{ Z K t.u.a.u.a.a.a.<.K Z 9.y.u.a.a.a.a.{ * : ` p.p.u.a.a.a.",
"3.1.3.3.u.a.u.a.r.3.3.t.p.+.C 4 7 F } +.9.t.3.N * O b K <.1.5.<.3.1.[ Z ` a.a.a.u.y.>.%. .K Z 9.a.u.a.a.a.a.3.G ` 3.a.a.a.u.4.3.",
"i.t.t.i.p.y.w.t.O.` ' 5.t.H V 9 w / :.r.7.3.K : o @ ' 9.9.i.i.8.| I [ Z ` a.a.a.a.e.=.l W K G 0.a.u.a.a.u.t.9.5.t.y.a.a.a.t.{ ` ",
"a.a.a.a.i.O.E H H K G 3.t.K C 9 q $.q.O.` B * $ O = +.a.p.p.i.r.I Z I Z ' a.a.a.a.e.=.l U G H 0.u.p.u.t.3.'  .i.p.p.a.a.9. .K H ",
"a.a.u.t.9. .K K K K +.t.p.7.+.X.o.q.7.H A b $ % 5 } r.a.a.a.p.i.3.| I K } a.a.a.y.q._ h ( O.7.t.a.a.y.7. .L <.i.p.a.u.a.4.` H ' ",
"a.a.r.5.3.P N I ' { y.a.a.a.a.a.a.t.<.5 c b c n ' p.a.a.a.a.p.i.r.3.,.'  .a.a.t.7.+.Q t o.w.a.a.a.a.9...L ] 3.i.a.u.a.a.4.` ` 3.",
"i.a...Z J c :  .9.y.p.a.a.a.y.p.a.3.D o # c w.y.y.a.a.a.a.a.p.i.,.<.9.y.p.p.a.7.C J M * { 9.a.a.a.y.H V G r.u.a.a.a.u.a.p.p.t.p.",
"u.a. .m J b 3 3.t.p.y.3. .4.4.@.{ [ J % $ c p.a.a.y.p.a.a.4. .} `  .r.p.p.r.H b * : : ; H ` ] { } { H H ' t.a.a.a.t.7.G Z `  .7.",
"u.u. .V K A Z 8.i.p.i.{ A { { ' Z ` K 3 : V p.p.a.a.a.a.a.} H K `  .t.p.r.+.:       * n V Z N V Z V H ] ..t.a.t.a.9. .* $ - H X.",
"r.6.L m I 6.t.t.t.t.r.<.' ' ` ' ' 3.3.B K  .p.a.a.a.a.p.t.] H [ 5.r.t.7.3.I : O $ # N i.| ' [ I I ' L  .t.a.t.+.6...P ; * > Z  .",
"3.m 3 3 P 8.p.2.{ } t.t.8.7.q.7.9.t.7.V K <.p.a.a.a.a.p.a.r.4.4.3.<. .H b c M M n ` 5.a.,.K K 3.8.7.K H { p.<.b n c c M N V 3.9.",
"| 5 3 v ` 5.r.,.K H 9.p.a.a.a.a.a.i.7.Z ' <.p.a.a.p.p.p.t.9.3.3.,.} ' 3 * ; K } ] r.y.9.<.' H t.a.p.' Z V 3.K % % ; > ' {  .p.p.",
"I ..+.3.8.<.,.5.{ K ' 9.a.a.p.p.a.3.[ L 3.t.a.a.p.p.p.t.[ 3 % %  .7.k 0 V S 5.r.t.t.5.{ 5.9.0.p.a.p.y.{ 3 ; : M M H ..9.r.t.p.p.",
"' 9.t.t.r.<.{ 9.<.' K ' X. .3.7.p. .P ' 9.t.a.a.y.r.+.} P ; O @ O.:.d q 9 J 7.a.a.t.5.{ 8.r.a.a.a.a.p. .3 # % M K 2.t.p.p.p.r.4.",
"{ y.p.p.t.1.| 9.4. .` K K A `  .t.+.'  .9.a.a.a.t.+.' L ' m 3 b 4.>.j p T ' r.a.p.0.5.[ 8.i.a.p.a.a.p. .n % > K  .9.p.p.p.y.3.{ ",
"p.a.i.t.8.<.| 9.t.w.:. .P K V A 0.t.t.r.r.t.a.i.7.' [ | 0.t.t.i.u.y.r.r.t.p.a.p.t.9.3.[ 9.t.i.0.t.p.i.3.H I <.r.y.a.p.t.r.9.' ' ",
"p.a.4.'  .5.9.p.&.^ $.} J ; % :  .9.9.] | 3.p.+.K H <.t.i.a.a.a.a.t.<.' 2.a.a.7.'  .1.9.t.9.}  .8.y. .' I I 1.t.a.y.r.2.<.<.D { ",
"u.u. .A I 8.a.r.( i d W A % X O N ,.<.N K <.p.{ Z G 7.a.a.a.a.p.9.5.I H } a.a.5.Z P <.9.p.7.` ' O.7.H D K I 1.i.p.p.r.[ P K Z ' ",
"a.a.7.} ' 4.t.K Z V C H D v : @ X > V K K  .p.4.{  .r.y.a.a.a.t.' H ` { +.y.a.w.} ` H Z 7.9.+.{ K V G K A H O.t.a.p.t.` H H H Z ",
"a.a.y.r.7.+.] Z C V C } 4.4.H 3 X = n Z `  .p.t.r.w.y.a.a.a.i.0.{ K K ` ' O.t.p.9.5. .I 7.t.t.9.{ N V Z Z H W ( :.w.w.a R X.] H ",
"p.a.a.p.t.O.H F 0 0 ' 8.a.a.3.E 3 V H Z K  .u.a.a.a.a.a.a.a.i.0.<.I K P P ' r.a.a.i.8.[ 8.t.a.y.3.K K H Z H T g ) :.:.g ! o.+.} ",
"a.a.a.a.t.2.' ~ s s y.a.a.u.u.p.y.p.r.Z K  .u.a.a.a.a.a.a.a.i.9.,.' [ [ [ [ t.a.a.t.3.I 8.t.a.a.u.a.p.@.H ' Q h u ) >.z f g e.u.",
"a.a.a.a.i.2.{ o.-.-.u.a.a.a.a.a.a.8.[ : : N y.a.a.a.u.a.a.3.{ <.( ^ +.4.3.3.<.<.<.<.1.8.<. .{ w.u.y. .` A ! ) $.%.>.y.;.;.&.O.O.",
"3.9.4.4.4.,.{ 4.w.y.a.a.u.a.t.4.3.} Z % $ c 7.3.4.4.t.y.q.` A ' ! / q.w.r.9.{ P P K '  .I P K w.a.y.L Z C g $.:.y.y.t.@.@.4.` K ",
"% m V Z A H ' r.y.a.a.u.u.a.O.V @ b Z > 3 n V : % 3 +.r.K A Z E i ~ y.a.u.t.{ K K A 6 O N K  .y.a.t.H V C y _ y.y.y.9.H V B Z A ",
"% J K P P  .q.y.a.a.p.a.a.a.' 3 O c J A ]  .I : O + { 9.K K { 7.q.q.p.p.p.t.3. .3.} Z $ K 3.t.u.a.u.L Z A X.q.t.7.7.1.P K P A ' ",
"c  .<...<.r.a.a.a.a.a.a.a.a. .H n P  .O.9.0.1.Z 4 - [ 5.<. .3.a.a.a.p.p.p.9.} ' '  .K N  .r.a.u.a.y. .' H 3.8.5.' K K ,.1...| 6.",
"| t.a.u.u.a.a.u.a.a.a.a.u.u.u.y.i.p.p.y.y.y.a.p.7.H I <.r.y.a.a.a.p.p.p.t.3.> $ * J 1.i.y.a.a.a.a.y.u.3.H ` [ K $ o : 7.a.i.u.u.",
"{ p.7.' ] 7.a.a.a.a.y.$.g W ' +.p.a.t. .] K ` +.+.O.' | t.a.u.u. .A c 4 3 3 = > 4 J ` ` ` '  .0.4.' ' Z 3 * 4 A 3 - b r.a.u.u.a.",
"2.p.3.H Z } 9.7.9.r.e.a 1 8 C E 7.9.3.K Z V V K  .+.X. .7.3.+. .Z : o . o O B H '  .` B V Z H 3.' c n 4 * X * n 6 n C t.a.a.u.p.",
"p.a.3.H K H H H ' O.*.9 , 2 C H H H H H G C Z H `  .r.w.L n 5 - % $ o . O * @.a.p.y.3.Z Z Z C H n % 3 3 = @ * 3 n Z ] i.a.a.a.u.",
"a.a.y.9.5. .P ` H K *.8 @ 2 B H ' ' K K +.9.7.` Z Z 7.r.[ : O * % % n c V +.t.a.a.y.t.q.r.2.H G c % - H 4.+.G % * n [ t.a.a.a.a.",
"y.>.>.q.t.7.<...L G | G b V ' } ,.<.<.} 9.a.a. .K G +.5.] - % ; 2 6 ` ' O.a.a.a.p.p.p.p.3.' M M c > 3 ' a.a.2.v b G <.9.9.9.9.r.",
";.l h ^ t.t.0.0. .L L | 5.9.t.i.r.t.t.t.a.a.u.t.7.' ' ' ~ 9 n G i g @.r.i.a.a.a.p.y.p.t.3 % % $ > D Z  .y.a.t.3.4.7.6.| I I [ [ ",
"g d j o.u.a.t.] V > ; ] i.y.a.p.p.p.a.a.p.7.` H H H H T Y C Z P p ~ w.y.p.a.a.4.V 3 2 3 = = - = 4 H H `  .y.y.y.t.i.r.' H H H K ",
"f ^ *.r.y.y.7.K 5 * O ' a.a.a.a.a.a.a.t.9.3.K A G G ] } ( F Z [ ( o.y.p.p.a.u. .* @ o O 6 H F H '  .K H ` t.p.a.a.p.t.O.} { } } ",
"x e.a.a.t.7...I n : * | a.a.a.a.a.a.p.3.<.,.' [ ' K 7.u.>.` A [ w.a.a.p.a.p.t.{ % * % * { 9.p.a.y.p.' H H t.a.a.a.a.p.a.p.r.t.i.",
"e.a.a.a.9.G 5  .3.7.3.r.a.a.a.a.p.a.7.> ; c I K ' r.y.e.x q Z [ r.a.a.a.t.t.<.' C  .5.7.t.y.a.a.a.a.r.r.r.y.a.p.a.a.a.a.3.A K O.",
"a.a.7.] K b b 3.t.a.a.a.i.7.7.7.p.a.7.* ; b <. .3.p.a.w.! U H <.t.p.a.r.8.5.2. .} t.a.a.a.a.a.t.7. .+.7.a.a.a.a.a.i.i.9.} D K 3.",
"p.p.H @ $ c K 6.t.p.a.a.9.K Z ` p.a.7.M V ' 0.t.y.p.a.9.[ E { r.p.p.a. .' { 4.r.t.a.p.a.a.a.p.3.A $ - ' a.p.p.p.i.i.9.{ ' { r.p.",
"t.] n O o > J 9.y.a.y.2.` K H ' p.5.] A A ' i.a.y.:.) ~ ' K ] r. .O.y.O.' K ` ' ' } 3.p.a.t.O.V : X - ' p.a.9.} ] ] { J K } i.p.",
"r.' V c > Z  .t.y.t.9. .H H ' 3.a.+.K K ' 3.t.p.r.o.j a [ ` { r.{ { r.7.2.{ ` K K I  .y.a.8.A > * > m } p.p.4.I K K ' { <.7.p.p.",
"9.,.[ [ | 7.a.a.t.4. .[ I H 3.a.a.3.[ ] 7.t.9.0.7.R h k { ' { 5.<.<.r.p.p.r.,.{ | [ <.r.u. .> * b | [ +.t.r.3.[ [ [ ,.y.p.u.a.a.",
"p.t.r.i.t.t.a.a.} 6 : S [ H 7.a.a.i.t.t.i.9.,. .[ C @.y.w.' D ,.8.t.a.a.p.p.p.t.i.9.5. .9.+.G G | t.t.3.' | 3.8.t.i.i.a.a.a.u.a.",
"a.u.a.p.u.0.+...C : * M K A } 7.p.9.3.3.3. .K ` K K 7.a.y. .K ' 0.t.3.4.r.p.a.a.a.i.3.`  .' m M | a.a.9.] I  .t.p.a.a.a.a.a.r.7.",
"a.a.p.p.t.} N m n 6 c C H Z Z ] i. .Z V Z H K H '  .w.a.u.3.} ] 0.7.H H  .a.p.a.p.i.5.H K m * O V a.u.r.3.` +.y.p.a.a.p.a.p.X.H ",
"t.7.8.9.9...P L G H 7.r.7.K A K r.<.I I I  .r.t.w.i.p.a.a.y.i.t.t.8.[ H } p.t.t.i.i.t.7.{ N ; O Z p.i.t.r.r.t.a.a.p.p.t.t.9.} ' ",
"7.J G K <.1.3.6...+.u.a.y.O.L K 2.3.1.3.3.8.u.a.p.p.a.a.a.a.a.i.8.3.2.O.3.t.5.3.3.t.9.3.<. .K A  .p.3. .O.y.a.a.a.p.t.5.3.1.K { ",
" .- % - I 8.a.a.a.a.a.a.u.a.X.I { 5.t.a.a.p.a.y.p.i.y.y.p.a.a.9.,.<.r.t.t.5. .' ` 5.5.[ 8.y.a.a.u.t.H V H r.a.a.t.t.8. .[ [ D  .",
"[ |  ...7.t.a.a.a.a.a.a.a.a.t.9.9.t.y.a.a.a.u.+.K E k #.e.y.a.t.<.,.r.` n > <.9.r.0.5.[ 9.t.a.t.6.| '  .7.p.a.p.] ' ,.5.9.9.9.r.",
"I 7.0.t.t.p.a.a.a.a.a.a.a.a.t.9.2.9.p.a.y.e.o.' G V r h >.r.7.3.' K { n * @  .a.y.t.5.[ { {  .3.| H ] +.i.a.u.u.L G ' r.i.i.p.p.",
"' t.a.a.a.u.a.a.a.p.a.u.t.a.r. .K 3.p.a.y.:.u U 0 F y j e. .' ' K V 6 * @ % 5.a.u.0.3.' b > 5 K K G ] 7.a.p.u.t.] L ` t.a.a.u.p.",
"t.u.a.a.p.i.t.i.a.a.t.9.7.8...] ' 3.t.a.e.:.h u ~ r.e.y.u.' G [ 8.,.% # = K 9.a.a.t.<.J : $ % J ..t.t.t.r.7.7.9.7.8.9.p.u.u.u.u.",
"a.a.a.p.i.9.5.t.p.y.0.{ Z G H K 5.9.i.a.t.:.Q Y Q u.a.a.a.' Z [ t.9.K H ' 5.y.a.a.9.[ b M V K  .r.a.a.7.` G P  .3.3.5.p.u.a.a.a.",
"i.u.i.t.9.<.{ 9.t.t.3.n $ % 4 H t.y.p.a.p.8.[ ` ] u.a.y.r.H G I t.a.a.a.p.a.a.u.t.7.H * | 9.a.a.u.u.p.} 2 % > G I I | t.a.a.a.a.",
"[ y.*.L K K I r.7.} H 6 > n C H A 3.y.a.i.9.[ H ' u.a.4.> 4 m ' w.a.a.a.a.p.a.9.' G n 3 +.t.a.a.a.p.} H n 2 b G H L ' r.a.a.a.a.",
"L t...G A B V  .} L Z K | X.{ L V 2.w.7.3. .H ` { 7.O.H O 2 Z 5.i.p.p.a.p.p.4.} G Z H } 9.y.a.a.r. .Z n b ` } +.+.+.3.+.8.t.a.a.",
"L t.+.H Z n 2 Z H H H 4.a.u.7.' Z 2.r. .{ ` V `  .} n * o 2 H p.a.a.a.a.p.t.] A V G  .a.u.a.a.p.3.F > = 3 r.a.a.a.u.t.` { 5.p.a."
};
