/* XPM */
static char *result[] = {
/* columns rows colors chars-per-pixel */
"64 64 174 2 ",
"   c #151523",
".  c #121422",
"X  c #0B111E",
"o  c #090F1E",
"O  c #090E1E",
"+  c #080E1E",
"@  c #090E1D",
"#  c #090D1F",
"$  c #080E1F",
"%  c #090D1E",
"&  c #0E1020",
"*  c #121222",
"=  c #161523",
"-  c #161522",
";  c #161521",
":  c #121221",
">  c #080D1F",
",  c #080C1E",
"<  c #080E1D",
"1  c #080D1D",
"2  c #0A0E1F",
"3  c #0C101F",
"4  c #111322",
"5  c #141523",
"6  c #151623",
"7  c #0A0E1E",
"8  c #131321",
"9  c #090E1F",
"0  c #080D1C",
"q  c #080D1E",
"w  c #0C1120",
"e  c #141524",
"r  c #131422",
"t  c #0B101F",
"y  c #0F1120",
"u  c #131322",
"i  c #0F1121",
"p  c #121322",
"a  c #111321",
"s  c #0B0E1F",
"d  c #0A0E1D",
"f  c #090F1F",
"g  c #0A0F1E",
"h  c #0A0E20",
"j  c #0B0F1E",
"k  c #0E1121",
"l  c #141422",
"z  c #0E1120",
"x  c #0B0F1F",
"c  c #0A0F1F",
"v  c #101221",
"b  c #141423",
"n  c #0D1221",
"m  c #0D101F",
"M  c #0E0F1E",
"N  c #0D0F1E",
"B  c #0D0F1F",
"V  c #0D1120",
"C  c #0C111F",
"Z  c #0C1020",
"A  c #0C0F21",
"S  c #0D0F20",
"D  c #0E101F",
"F  c #0C1121",
"G  c #0F1221",
"H  c #0E1321",
"J  c #0B101E",
"K  c #0D101E",
"L  c #0D1121",
"P  c #0F1222",
"I  c #141321",
"U  c #131522",
"Y  c #131523",
"T  c #121523",
"R  c #141421",
"E  c #131320",
"W  c #0A0D1F",
"Q  c #111323",
"!  c #131423",
"~  c #121522",
"^  c #131623",
"/  c #121424",
"(  c #131524",
")  c #171523",
"_  c #161623",
"`  c #171623",
"'  c #151421",
"]  c #0F111F",
"[  c #0D1020",
"{  c #151624",
"}  c #161723",
"|  c #151622",
" . c #0C0F1E",
".. c #181622",
"X. c #171622",
"o. c #0F1020",
"O. c #161622",
"+. c #171521",
"@. c #141623",
"#. c #0D1021",
"$. c #151423",
"%. c #101222",
"&. c #0B0F20",
"*. c #141522",
"=. c #0F101F",
"-. c #151522",
";. c #161624",
":. c #0C0F20",
">. c #171522",
",. c #171624",
"<. c #070D1E",
"1. c #0B0E1E",
"2. c #141525",
"3. c #0E1221",
"4. c #080D20",
"5. c #080E20",
"6. c #151422",
"7. c #101120",
"8. c #0D1220",
"9. c #0C0F1F",
"0. c #0E101E",
"q. c #101121",
"w. c #080F1F",
"e. c #0D111F",
"r. c #161524",
"t. c #151524",
"y. c #141322",
"u. c #131424",
"i. c #141625",
"p. c #090C1E",
"a. c #101220",
"s. c #111221",
"d. c #111121",
"f. c #101321",
"g. c #121423",
"h. c #151724",
"j. c #141624",
"k. c #070D1D",
"l. c #121321",
"z. c #080E1C",
"x. c #111421",
"c. c #090E20",
"v. c #090E21",
"b. c #090F22",
"n. c #111422",
"m. c #0F1021",
"M. c #080E21",
"N. c #0E1021",
"B. c #090D1D",
"V. c #090D1C",
"C. c #090F1D",
"Z. c #0A0F1D",
"A. c #080C1F",
"S. c #090F21",
"D. c #111423",
"F. c #151525",
"G. c #0A0D1E",
"H. c #0C101E",
"J. c #0B0E20",
"K. c #0B1020",
"L. c #0B1021",
"P. c #101322",
"I. c #121323",
"U. c #100F1E",
"Y. c #0D0E1D",
"T. c #131624",
"R. c #151521",
"E. c #0E111F",
"W. c #0B0E1D",
"Q. c #111222",
"!. c #121421",
"~. c #0C0E1E",
"^. c #0B0D1D",
"/. c white",
/* pixels */
"  . X o O + + + @ # # $ $ O @ # % @ & * = = = = = = = = = = = - ; - : & # > $ , O o $ $ $ < @ @ 1 % 2 3 4 5 - = = = = = = = = = ",
"6 . X 7 O + $ $ O # # $ $ O O # O @ & * = = = = = = = = = = = - - - 8 & 9 $ $ , O o $ $ + + O @ 0 q 9 w 4 e = = = = = = = = = = ",
"= r t 2 % @ $ $ # $ $ # @ O # $ + @ y u = = = = = = = = = = = = = = u i 9 > # # + < # O @ # $ $ @ + 9 t p = = = = = = = = = = = ",
"= r t 2 % @ $ $ # $ $ # @ O # $ + @ y u = = = = = = = = = = = = = = u i 9 > # # + < # O @ # $ $ @ + 9 t p = = = = = = = = = = = ",
"= r t 2 % @ $ $ # $ $ # @ O # $ + @ y u = = = = = = = = = = = = = = u i 9 > # # + < # O @ # $ $ @ + 9 t p = = = = = = = = = = = ",
"= r t 2 % @ $ $ # $ $ # @ O # $ + @ y u = = = = = = = = = = = = = = u i 9 > # # + < # O @ # $ $ @ + 9 t p = = = = = = = = = = = ",
"= r t 2 % @ $ $ # $ $ # @ O # $ + @ y u = = = = = = = = = = = = = = u i 9 > # # + < # O @ # $ $ @ + 9 t p = = = = = = = = = = = ",
"= r t 2 % @ $ $ # $ $ # @ O # $ + @ y u = = = = = = = = = = = = = = u i 9 > # # + < # O @ # $ $ @ + 9 t p = = = = = = = = = = = ",
"= r t 2 % @ $ $ # $ $ # @ O # $ + @ y u = = = = = = = = = = = = = = u i 9 > # # + < # O @ # $ $ @ + 9 t p = = = = = = = = = = = ",
"= r t 2 % @ $ $ # $ $ # @ O # $ + @ y u = = = = = = = = = = = = = = u i 9 > # # + < # O @ # $ $ @ + 9 t p = = = = = = = = = = = ",
"= r t 2 % @ $ $ # $ $ # @ O # $ + @ y u = = = = = = = = = = = = = = u i 9 > # # + < # O @ # $ $ @ + 9 t p = = = = = = = = = = = ",
"= r t 2 % @ $ $ # $ $ # @ O # $ + @ y u = = = = = = = = = = = = = = u i 9 > # # + < # O @ # $ $ @ + 9 t p = = = = = = = = = = = ",
"= r t 9 % @ + $ # $ $ # @ O # $ + @ y u = = = = = = = = = = = = = = r i 9 > # # + < # O @ # $ $ @ + 9 t p = = = = = = = = = = = ",
"r a t s 7 d f 2 2 9 f 2 g 7 h 2 7 j k 4 l l l l l l l l l l l l l r a z x 2 2 2 O o 2 7 g 2 c c d 7 c 3 v r b l l l l l l l l l ",
"n n w m M N 3 3 B 3 w V C Z A S D D F k v v v v v v v v v v v v G H C J D D K 3 3 3 3 3 3 3 w V K B D & L n P v v v v v v v v v ",
"g j z : I l l l l U Y   l r T l R E y 3 g g g g g g g g g g g 7 W 2 c 3 Q ! Y ~ Y ^   b ! / ( ^ U U . y 3 g g g g g g g g g g g ",
"% x y l = ) - - - 6 _ ` - = 6 _ - ' ] j + O O O O O O O O O O q q > 2 [ ! { } | 6 _ ` ) -   6 6 | 6 5 y  .@ @ @ O O O O O O O O ",
"# s v   ` ..; ; ; = - ; ; - = X.X.  o.s $ $ $ $ $ $ $ $ $ $ $ $ $ $ s & Y O.X.; +.+.+.+.+.+.; ; ; `   y j @ < + $ $ $ $ $ $ $ $ ",
"O j v Y 6 = 6 6 = 6 6 = ` _ @.= = 5 #.h # # # # # # # # # # # $ $ O j y Y | ; - ) ` = - ; X.; ; ; - $.%.&.# # # # # # # # # # # ",
"@ j v *.  =     -     - ) _ 6 - - 5 L c % % % % % % % % % % % q + @ j =.Y -.;   { ;.  -.| O.| -.; - $.%.:.# # % % % % % % % % % ",
"@ j v l = = = - ; = - +.+.>.,.- -   V g @ @ @ @ @ @ @ @ @ @ @ q <.@ 1.D Y -.; @.e 2.@.@.@.@.@.@.; - $.%.&.# # O @ @ @ @ @ @ @ @ ",
"# s y l = +.= - ; = - ; +.>.= ; - ;.3.x # # # # # # # # # # # 4.5.$ s D Y 6 = = = = = ;.;.= = = ; - 6.7.j O $ # # # # # # # # # ",
"# s y l - +.- - -     - - -   - = 6 8.c # # # # # # # # # # # 5.5.$ s & Y 6 - = = = ) ` = = - - ; - 6.y j @ + $ # # # # # # # # ",
"# x v Y | ; ; - = 6 6 = =   @.=   @.V c $ $ $ $ $ $ $ $ $ $ $ $ $ $ s D Y | ; = = = ..+.; = - ; ; - l y j @ < + $ $ $ $ $ $ $ $ ",
"@ j v l = = = = = = - ; ; - = - -   & s # # # # # # # # # # # O @ @ 1.D Y | ; @.@.6 = - ; @.@.| ; | Y %.&.# # # # # # # # # # # ",
"@ j v l _ = = = = - - - - -   ; -   & x # # # # # # # # # # # O @ + 1.D *.- ; 6 6   - ; ; 6 6 6 - _ 5 %.9.% 9 9 # # # # # # # # ",
"@ j y U 6 ,.= = = ; - = =   @.; -   V c $ $ $ $ $ $ $ $ $ $ $ + < $ c 0.' ; +.,.= = ; ; ; = = = ,.= $.q.j @ w.$ $ $ $ $ $ $ $ $ ",
"@ j y U 6 ,.,.,.= ; ; +.= = = X.X.  D j @ @ @ @ @ @ @ @ @ @ @ O g $ c e.U -.; = = = X.; ; = = = = = 6.o.j @ $ O @ @ @ @ @ @ @ @ ",
"@ j y U 6 ;.;.= = -.- >.= = 6 ` ) 6.=.1.% O O O O O O O O O % O O O g w ( 6 |     6 _ - - =   6 r.t.b y j @ q % O O O O O O O O ",
"@ j y . @.Y       5 5       @.;.= y.D s # # # # # # # # # # # O d d g w u.( Y @.@.5       $.5 @.i.2./ y j @ p.# # # # # # # # # ",
"B D D y a.a.a.v s.a v a.s.s.a a s.7.V t t t t t t t t t t t t 3 m m B B y v v s.a s.7.q.d.7.7.v 4 %.i & & B 9.x t t t t t t t t ",
"4 v D m  . . .3 3 Z :.9.3 3 3 Z Z 3 w 3.a f.f.f.f.f.f.f.f.f.v a 4 4 y D m 3 3 3 m 3 9.9.9.9. .3 3 3 3 D v 4 a f.f.f.f.f.f.f.f.f.",
"i.g.D d @ @ @ @ @ # # # @ @ @ # 9 g V 4 = = = = = = = = = = = _ h.6 p z g @ @ @ @ @ @ @ @ @ @ @ @ @ d m g.j.@.= = = = = = = = = ",
"@.. B d O $ $ + @ # # $ k.1 # $ $ 2 k l.; ; ; ; ; ; ; ; ; ; ; O.X.,.u & d O $ $ q , $ $ $ $ $ $ <.k.z.J x.6 ; ; ; ; ; ; ; ; ; ; ",
"6 . B 7 O $ $ + @ # # $ < < O 9 $ O & l.- - - - - - - - - - - - >.X.8 & 7 9 c.9 % q $ $ $ $ $ $ $ <.+ J x.6 ; - - - - - - - - - ",
"6 . B 2 # $ $ + @ # # $ < < @ f w.< & : = = = = = = = = = = = - ; ; l.& W v.b.# O @ $ $ $ $ $ $ $ $ 9 t n.6 ; - = = = = = = = = ",
"@.. N d O $ # % < # # $ < + # $ $ 9 & u = = = = = = = = = = =   @.= u m.9 5.M.# O @ $ # # # q , # $ 9 t n.6 X.= = = = = = = = = ",
"_ r 3 O + $ > q % $ $ 9 O O > $ $ 9 N.p = = = = = = = = = = = 6 @.6 . i O $ 5.O @ @ # O % B.B.% + + O t 4 { = = = = = = = = = = ",
",.b t f $ $ <.q # $ $ # g O , $ $ # N.p = = = = = = = = = = =   @.@.. y d + $ @ @ O # O @ 0 @ @ < < O t Q t.= = = = = = = = = = ",
",.! t f + @ 0 0 @ < < @ @ @ @ $ + @ y u = = = = = = = = = = = - ; = r y d + $ $ $ $ $ $ $ $ $ $ $ # W B 4 6 X.= = = = = = = = = ",
") r t f $ % + q q % % % % % % # q @ y u = = = = = = = = = = = - +.- 8 y d + $ $ $ $ $ $ $ $ $ $ # # W B 4 6 - - = = = = = = = = ",
"= r t f $ # $ > , # # # # # # # % V.& p = = = = = = = = = = = >.+.; 8 y d + $ $ $ $ $ $ $ $ $ $ # # W B n.6 ; - = = = = = = = = ",
"6 n.J C.O # q <.$ $ $ $ $ $ <.$ + @ D l.= = = = = = = = = = = ) ,.= l.z d + $ 0 0 0 @ o g @ 1 1 # # W B n.6 ; - = = = = = = = = ",
"@.n.J Z.@ O < + O + + + + + < $ + @ D l.= = = = = = = = = = = = = ,.r y 7 $ $ + < @ @ O O q q + $ $ 9 9.4 t.; - = = = = = = = = ",
"@.n.J @ @ @ O O @ < < < @ @ < $ + O & l.= = = = = = = = = = = = = ,.r y 2 > $ $ + @ O 9 # A.> $ $ $ 9 t Q t.- - = = = = = = = = ",
"6 n.t + q # S.v.# # # # @ O # <.q # i u ; ; ; ; ; ; ; ; ; ; ; -.@.h.. z d q <.$ $ $ M.M.M.M.5.$ $ $ f w D.F.= - ; ; ; ; ; ; ; ; ",
"r f.J o O # 5.$ O + + O @ @ O q $ c.L f.l l l l l l l l l l l Y Y Y s.D g @ < + + + 4.4.4.$ O G.G.O c 3 %.! b b l l l l l l l l ",
"v z H.3 3 J.&.x j j j  .H. .j K.L.L.3 z P.P.P.P.P.P.P.P.P.P.P.P.P.G y D 3 3 J  . . .:.&.&. .N N N 3 3 B i v %.P.P.P.P.P.P.P.P.P.",
"@ j y . 5 $.$.    l 6.  >.-   2.2.I.U.Y.d d d d d d d d d d d O 9 @  .y g.T.@.R.R.R.  6 j.        e / i 3 g d d d d d d d d d d ",
"% s y l = - = = =   -.- +.>.= r.t.b D 1.% % % % % % % % % % % $ $ % x V 5   _ - -.| - = _ = = = - = b i x O % % % % % % % % % % ",
"# s y l - ; - = = @.| ; ; - = = =   V c # # # # # # # # # # # > $ # 2 w $.= = = 6 @.; - = = = = ; - 6.y c $ # # # # # # # # # # ",
"# s y l - ; = = = @.| ; ; - = = =   V c # # # # # # # # # # # $ $ # c V $.= = = 6 @.; - = = = = ; - 6.y c $ # # # # # # # # # # ",
"# s y l - ; = = = @.| ; ; - = = =   V c # # # # # # # # # # # $ $ # c V $.= = = 6 @.; - = = = = ; - 6.y c $ # # # # # # # # # # ",
"# s y l - ; = = = @.| ; ; - = = =   V c # # # # # # # # # # # $ $ # c V $.= = = 6 @.; - = = = = ; - 6.y c $ # # # # # # # # # # ",
"# s y l - ; = = = @.| ; ; - = = =   V c # # # # # # # # # # # $ $ # c V $.= = = 6 @.; - = = = = ; - 6.y c $ # # # # # # # # # # ",
"# s y l - ; = = = @.| ; ; - = = =   V c # # # # # # # # # # # $ $ # c V $.= = = 6 @.; - = = = = ; - 6.y c $ # # # # # # # # # # ",
"# s y l - ; = = = @.| ; ; - = = =   V c # # # # # # # # # # # $ $ # c V $.= = = 6 @.; - = = = = ; - 6.y c $ # # # # # # # # # # ",
"# s y l - ; = = = @.| ; ; - = = =   V c # # # # # # # # # # # $ $ # c V $.= = = 6 @.; - = = = = ; - 6.y c $ # # # # # # # # # # ",
"# s y l - ; = = = @.| ; ; - = = =   V c # # # # # # # # # # # $ $ # c V $.= = = 6 @.; - = = = = ; - 6.y c $ # # # # # # # # # # ",
"# s y l - ; = = = @.| ; ; - = = =   V c # # # # # # # # # # # $ $ # c V $.= = = 6 @.; - = = = = ; - 6.y c $ # # # # # # # # # # ",
"# s y l - ; = = = @.| ; ; - = = =   V c # # # # # # # # # # # $ $ # 2 V   = = = 6 @.; - = = = = ; - 6.y c $ # # # # # # # # # # ",
"O j i e ;.= ` ` X.= = - - = = ,._ 5 E.j O O O O O O O O O O O O $ 1 7 D 5   = - O.O.; = ` - - +.; _ 5 i x O # % O O O O O O O O ",
"@ j i u.e   = = -       $.$.$.r.  U D j O O O O O O O O O O O + + 0 W.D ~ 5   6.-.-.'     -.R.; 6.@.Y i j @ G.O O O O O O O O O ",
"g j D Q.I.!.I 8 !.I.I.g.I.I.I.I.I.4 & x $ $ $ $ $ $ $ $ $ $ $ + 0 @ W.D 4 g.g.I.I.I.4 g.g.I.r U I.g.4 & ~.^.^.O $ $ $ $ $ $ $ $ "
};
