/* XPM */
static char *result[] = {
/* columns rows colors chars-per-pixel */
"64 64 191 2 ",
"   c #643E3D",
".  c #6D3F3B",
"X  c #723F3A",
"o  c #5D403E",
"O  c #66413F",
"+  c #6D413D",
"@  c #72423D",
"#  c #7B443B",
"$  c #5D3F42",
"%  c #603F42",
"&  c #5D4042",
"*  c #58474E",
"=  c #5A474F",
"-  c #5A4751",
";  c #5B4A54",
":  c #5B4E5A",
">  c #5D515D",
",  c #644244",
"<  c #6B4241",
"1  c #6C4847",
"2  c #654649",
"3  c #6A4749",
"4  c #6C4A4A",
"5  c #714947",
"6  c #754944",
"7  c #7A4A42",
"8  c #785049",
"9  c #7A524E",
"0  c #654D54",
"q  c #64525B",
"w  c #6C555C",
"e  c #6B5A5E",
"r  c #795251",
"t  c #795752",
"y  c #735A5E",
"u  c #7E5F59",
"i  c #5B5160",
"p  c #625765",
"a  c #6D5D64",
"s  c #655D6A",
"d  c #685C68",
"f  c #745D64",
"g  c #785F68",
"h  c #645F71",
"j  c #66606C",
"k  c #6D636E",
"l  c #766667",
"z  c #7A6665",
"x  c #766867",
"c  c #74656B",
"v  c #786668",
"b  c #77696C",
"n  c #7B6A6B",
"m  c #6E6471",
"M  c #6D6C7A",
"N  c #736B73",
"B  c #716E7C",
"V  c #76727E",
"C  c #7C747D",
"Z  c #8E4737",
"A  c #82463A",
"S  c #8A473A",
"D  c #8C483B",
"F  c #914636",
"G  c #984736",
"H  c #92493A",
"J  c #994A3A",
"K  c #A64D37",
"L  c #AD4F37",
"P  c #A44E39",
"I  c #AD4F39",
"U  c #B04F3A",
"Y  c #AE5037",
"T  c #A5563F",
"R  c #AD5039",
"E  c #A6583F",
"W  c #B05037",
"Q  c #B0513A",
"!  c #854D44",
"~  c #84544A",
"^  c #8E5E4E",
"/  c #945443",
"(  c #955A4B",
")  c #9D5E4B",
"_  c #835D56",
"`  c #8A5E51",
"'  c #A65641",
"]  c #AB5741",
"[  c #A75841",
"{  c #AE5B43",
"}  c #A05F4C",
"|  c #AE5F48",
" . c #B05C44",
".. c #8D6254",
"X. c #936353",
"o. c #9E6551",
"O. c #9C725F",
"+. c #A4634D",
"@. c #AC614A",
"#. c #B0654D",
"$. c #A26551",
"%. c #A26B56",
"&. c #AB6A54",
"*. c #A96F59",
"=. c #B26A52",
"-. c #A4735E",
";. c #AA745D",
":. c #B27157",
">. c #B4735A",
",. c #B5785F",
"<. c #8A6F68",
"1. c #946F60",
"2. c #9B7464",
"3. c #987767",
"4. c #93776B",
"5. c #96796E",
"6. c #9D7B6C",
"7. c #857474",
"8. c #8B7471",
"9. c #84767C",
"0. c #897A7A",
"q. c #937A72",
"w. c #9D7F74",
"e. c #927E7A",
"r. c #A17561",
"t. c #AB7761",
"y. c #A67D66",
"u. c #AA7D66",
"i. c #A67E68",
"p. c #A97E69",
"a. c #B67761",
"s. c #B47D64",
"d. c #B37F68",
"f. c #8F807E",
"g. c #9E8175",
"h. c #94817D",
"j. c #9E8378",
"k. c #AE8167",
"l. c #AE826B",
"z. c #B38067",
"x. c #B5846B",
"c. c #B8856C",
"v. c #B5886E",
"b. c #A48475",
"n. c #AD8672",
"m. c #A2857A",
"M. c #A98878",
"N. c #AA8C7F",
"B. c #B18671",
"V. c #B38972",
"C. c #6F6F80",
"Z. c #756F80",
"A. c #6E7183",
"S. c #6D738A",
"D. c #747383",
"F. c #7B7480",
"G. c #757789",
"H. c #757A8C",
"J. c #7A7D8E",
"K. c #767D90",
"L. c #7A7D91",
"P. c #847D84",
"I. c #887F85",
"U. c #7D808E",
"Y. c #7E8192",
"T. c #8D8183",
"R. c #83818D",
"E. c #8C848B",
"W. c #8F888C",
"Q. c #918382",
"!. c #9C8986",
"~. c #90878B",
"^. c #828392",
"/. c #878896",
"(. c #8D8B93",
"). c #8D8E9C",
"_. c #938C94",
"`. c #908F9C",
"'. c #8F909C",
"]. c #9E9293",
"[. c #94919C",
"{. c #9D949A",
"}. c #AB8D82",
"|. c #A09394",
" X c #868FA3",
".X c #888EA3",
"XX c #8791A6",
"oX c #8A91A3",
"OX c #8E9AAE",
"+X c #9395A3",
"@X c #8E9AB1",
/* pixels */
"r.k.i.i.k.i.i.i.i.i.k.i.y.g.(.5.3.k.p.u.u.i.i.i.u.u.y.y.u.y.y.y.y.y.i.i.i.y.y.i.y.y.k.i.i.i.p.i.3.R.).k.p.u.k.k.y.y.i.p.i.i.i.i.",
";.,.a.,.,.a.a.,.,.,.a.d.x.N.[.f.3.r.,.,.,.,.a.,.,.,.,.,.,.a.,.,.,.,.,.,.,.,.,.a.a.a.,.,.a.,.s.l.6.[.+Xi.t.t.t.,.,.,.,.a.,.,.,.,.",
"P R Q Q R R R R R R [ $.x.}.[.V y S P W I R R R R R I R R R I I R R R R R R R Y R R R R R R $.r.6.[. Xf ! J R R L Q R R R I U U ",
"P R I R Y R R R I L T o.z.}.+XV y # P R I I R L R R R R R I I I I Y R R R R L R R R R L R L +.r.r.`..Xf ! J I I P U R R R R R I ",
"K R L Y R R R R U I ' $.z.}.+XV y # P R R R R I R R W R R I I I P L R R R P Q I I L R R W W $.r.6.[..Xy ! G I I R R R L R R I R ",
"K I U I I R L L W R ' o.z.}.[.V y A P W I I I R R R I R R W I I R R R L R R I R I R R R R Q +.r.6.[..Xy ! G U R R Y L I I U I R ",
"K R Y L L L R Y R I ' $.z.}.[.C y # P R R R R I R R I R I R R R R R R R R R R R R R R R R R &.r.6.[..Xa ! G I R I I I L I ] Q I ",
"K W Y R L I Y R R I ' $.z.}.[.F.y # P I R R R R R R I Y R R L R R R R R I R R I R I R R I I +.r.i.[..Xy ! G I I I I I I I R R I ",
"P R I R R I R R Y I ] $.u.}.+XF.y # K I I U Q R R R U I U I I I I I I U I U I I I I I I I I +.r.i._..Xy ! G I I R R Y Y I R R W ",
"P I R R R R I I I I ' o.d.}.+XB y # P I R R R I R U U R I I I I R R R R I I I I I I I I I R +.r.w.[..Xy ! J I I ] I I I W R R R ",
"L I Q R Y R Q I I L ' o.d.}.{.Z.y # P I R I I I R I U R I I ] I I I R I U L U U I I R W R R $.r.3.[..Xf ! G I I U L I I U I R R ",
"P I P P L L P L L L ' o.d.}.[.V y # P I I L L P L L I P L I I P P L L I U U U U P L L L R R +.O.3.[..Xy ! G K L I I I P I ' P R ",
"X 7 X X @ 7 # @ # # 7 ..d.}.+XB w + # 7 # @ # 6 @ # @ # 7 # X # 7 X % A % S 7 % 7 X @ # # @ ` O.6.[.).y 5 @ # # # @ # # 7 7 X # ",
", , % 3 , 2 , , , 2 4 u 3.}.+XD.a = , & , 2 , & 2 , , , , , , , , , 2 , 3 % % 2 , , , , , , t O.q.). Xa 0 & , = , , , , % , , % ",
"; : 0 ; ; ; ; ; ; ; q e z I.+XG.j : : ; - ; - ; : : ; ; : ; ; ; : ; ; : 0 ; ; ; ; : ; ; : ; a b 9.). Xh > ; - : : : ; : ; ; ; > ",
"l v v v x x x l c c l b <.9.~.9.b c l v v v l l B B b x v v v v v v v v c v c v v v c c c v v n 7.I.I.7.v v v v v M B N v v v v ",
"4.4.5.5.5.5.5.5.5.5.5.5.4.w.b.w.q.5.5.5.5.5.5.5.I.I.0.q.4.5.5.5.5.5.5.5.5.5.5.q.5.4.5.5.5.5.5.5.q.w.b.q.6.3.5.5.q.9.9.0.q.5.5.5.",
"k.x.x.x.x.x.v.x.c.c.x.x.x.x.c.c.c.c.c.c.c.c.v.V.{.!.w.x.c.c.c.c.c.c.c.c.c.c.c.c.c.c.c.x.v.x.x.c.c.c.c.c.c.c.v.v.M.h.f.j.v.x.x.v.",
"+.=.#.=.#.=.#.#.#.#.#.=.@.#.#.#.#.#.#.#.=.;.t.V.|._.7.X.} #.#.#.#.#.#.#.#.#.#.#.#.#.#.#.#.#.#.#.#.=.#.#.=.=.:.z.n.h.E.9...$.#.#.",
"E Q { Q R { { Q { R { R  .] ] ] Q { ] ] Q $.;.V.+XI.c ~ / ] Q  .] ] ]  .Q ] { R ] ] { { R {  .R Q { Q Q Q Q #.,.n.h.R.C 6 ' E Q ",
"K R R R Y Y Y R U I I I I L I I I I R R R ) -.V.{.I.m 7 H R R R U U I U U I I L U L I I L R I I R R I Y R E  .,.n.e.^.B O J R Y ",
"P R R L R R R W I I I U U U I U U I I R E +.;.V.{.^.m 7 H R I I U U I L I I I U U U I I R R I I R R R R I R #.,.V.h.R.V < J R R ",
"K I I R R R W W I I I I I I I I I I R R R } ;.V.{.^.c 7 H R I I I I U I I I I L I I U R R R I U R R R R R R @.,.n.Q.R.V + J R R ",
"P I I R R R R R Y R R R R R R R R R R R R ) ;.V.{.I.k 7 H R R R I I I I I R R R R R I R R L I I R R R R I R  .a.n.h.U.V + J R Y ",
"L U I I R R R R I U I I I I I I I U I I R +.-.V.{.R.c 6 H Q I I I I I U I U I I U I I R R R I I I I I I Q Q  .,.n.Q.R.B @ J W P ",
"P U I I I R R W I I U I U I U L I I U I E } ;.V.{.R.k 6 H U I I U I I I I I U I I I R W R I R U I U I I Q Q  .,.n.h.R.B < J W Q ",
"L W I L R R W R I I I I R R R R I I I I R } ;.V.+XI.k 6 H U I U L I I I I I I I I I R W R R R R U I I W Q R @.,.n.h.R.B < J Q I ",
"P R Y U W R R R R R W R W R R R W R W R R +.;.V.{.I.k 7 H W W U R W R W R R W R W R R Y L W R R R R I W Q ]  .,.n.h.R.B 1 J R I ",
"S S S D D D S S D D D D D D D D D D D D D ^ O.V.{.I.m 1 A Z D D D D D D D D H D D D D D D D D D D H D D D D ( t.n.e.P.B % S D D ",
"  O O , , <   , , < O , O O O O < , O O + _ O.n.+XI.m 3 . % %   % . % % , O < % O , < , < O , + , % , . < < 9 2.n.Q.^.B < < + % ",
"* - - * = - - - = = = = - = = = = = - = = e z 8.+X^.M : - = - - 2 - ; - = - = - = = = = - - = - - - - - = 0 0 v 7.R.Y.S.- - - - ",
"i s j j j s s s s d s d j d j d s d d s j k b C +X/.A.h s s s s d s s s s h s s d d s s d j s s s s s d s d k N 9.^./.G.s s s s ",
"V C C H.H.G.C C C C C C C C C C C C C C C C C C [._.P.C C C C C F.F.C F.G.H.K.C C C C F.C F.F.C F.C C C F.C C C F.~.W.E.C C C C ",
"p.n.n.]._.I.n.n.n.B.B.B.B.l.B.B.l.n.n.x.B.n.l.n.V.B.B.B.B.n.n.l.n.B.n.n.e.(.[.n.x.B.n.n.n.B.B.B.n.B.n.n.B.B.l.B.B.B.B.B.l.n.n.B.",
";.a.c.].[.T.2.*.:.:.:.:.:.:.:.:.:.:.>.>.:.:.,.>.>.=.:.:.,.>.>.>.:.,.s.B.h._.+X1.*.>.:.:.>.=.:.:.:.:.:.:.>.>.:.:.>.>.>.:.:.>.>.>.",
"@.:.v.].'.J._ /  . .{  . . . . . . . . . . .{ {  . . .{ { { { {  .#.a.B.h.[..Xr /  . . .]  . . . . . . .{  . .{  .{ { {  .{ { { ",
"' =.V.|.).L.r S I R R R R R R R I R R R R R R R R ] U I R R R R R { >.v.h.'. X1 D R R R R R R R R R R R R R R ] Q R R I I R R ] ",
"] =.V.].).L.r S I I I R I I R R I U I I I R R R I R I I I I R L R { >.B.j.'.oX1 H Y I L R R R I R R R R L R R R R I R I I I I I ",
"] #.c.].).L.r D I I U I U I I I U I I U I R R R R I U R I I R R R { :.v.h.[..X1 D W R R R R R R R R R R R L R L R R I I I I I I ",
"' =.V.|.).J.r D I U I I I I I I I I I I R I I U I I I W R R I I R { ,.v.h.)..X1 D I R R R R I I R R R I Y R I R R I I I I I I I ",
"[ =.V.|.).J.r Z R R I I I I I R R R I U R R R R I R R R I I I I R  .,.V.h.[. X1 D I I I R I I I R R R R R W I R R I I I U R R I ",
"' =.V.]..XJ.9 Z R I R I I I R R R R I I R I I R Q R W R I I R I R  .:.B.h.`..X1 H I L I R R I R R R R R Q W R Y R I I I I R R I ",
"] =.v.|.[.J.r S I Q R R I I I L I I I I R L I I W R R R R R L L R  .,.B.j.)..X4 D I I R R R R R R R R R I R I R R U I I R Q Q R ",
"[ =.c.].).L.r D W R R R I R I R R I I R R R R R R R R R R R R R R  .:.V.h.[.XX1 H R Y U R R R R R R I R R R L L R R R R R Q W I ",
"' &.v.|.).L.r S P P P P P P P P P P P P P P P P P P P P P K P T P [ &.k.T.'..X4 S P P P P P P P P T P P P P P T T P P P P P P T ",
"! o.v.|.oXL.r @ A # # # # # # # # A A # 7 A A # # # A # A A # # # ! ! u P.XX.X5 @ A A # A # # # # # A A A # # # # A # # # # A # ",
"4 u q.[.oXL.q , 2 2 2 2 2 2 2 2 2 2 2 2 3 2 2 2 2 2 3 2 2 2 2 2 2 3 3 w H.XXXX0 2 3 2 2 2 2 2 2 2 2 , 2 2 2 2 2 2 2 2 2 2 2 2 2 ",
"q k n '.oXY.s > > > > > > > > i : : i : i i i i > i q > > > > > > > > p K.XXoXp : i > > > > i : > > : : > > > > : > q : > q > > ",
"M V B (.[./.D.B B M B B B B B B C.B B C.A.S.C.M C.C.B B B B B B C.B B V R.).[.D.B B B B B M M D.V B B B A.S.S.A.B B C.C.B B B M ",
"5.g.g.N.}.m.g.g.g.w.g.w.w.w.g.g.w.w.w.e.P.P.e.g.g.g.w.w.w.w.w.w.w.w.w.w.m.}.}.g.w.w.w.w.g.w.g.g.g.w.w.w.e.P./.Q.w.w.g.g.w.w.w.w.",
"u.x.x.k.z.z.z.z.z.d.d.z.z.z.z.z.d.x.c.n.h.T.g.k.z.z.z.z.x.d.x.z.d.d.x.d.k.d.z.z.z.z.u.x.z.z.z.z.z.z.z.v.g.~.+XM.d.z.z.z.z.z.x.d.",
"o.$.+.o.$.o.o.o.o.o.o.o.o.o.o.o.o.t.d.M.h.I.8.` o.$.$.%.$.o.o.o.$.$.$.o.$.o.$.$.o.o.o.o.o.o.o.o.o.$.%.c.b.~.+X8.` X.o.$.o.$.$.o.",
"T T ' ' ' ' ] E E ' ' ' ' ' E E | +.d.M.I.P.n ! ' [ ' ' ' ' ] ] ' ' ] ] ' ' ' ' ' ' ' ' ' ] ' [ E ' @.x.j.~.OXz 6 / ' ' ' ' ' ' ",
"K L I I U U R R Y I I I I L U U Q | d.n.Q.L.c X P R I I I W W R R R R R R R W R R R R Y I I R R L W { x.j.~.OXg X Z P R R I U I ",
"K Y L R I U Q W R L L L I I I I  .#.z.b.Q.L.c % P R R R R R R R R R R R R Y R I R R R U I R R R Y I { v.j.W.@Xl X F K Y R Y I R ",
"L I I R I R I R L U I I L I I I Q  .x.n.T.R.c X P P R I I I I I I I R L I I I I I I I R R R R I W I { c.j.W.@Xg X F K R L I Y R ",
"P U U R R R R R L U I I R R I R Q #.x.b.f.U.c % P W I R I I I I I I I I I I I I I I I R R I I I W R  .x.j.W.@Xf X F K I I L L R ",
"P Q I P L I R R W R I R R R U U Q #.z.n.T.U.c < P W W R R I R I I I I I I I I I I L I R R R R R R I { c.j.W.@Xg X F P I I I R R ",
"I U I I L I R R W R R I R I I U Q @.z.b.Q.Y.c . P Y L R R R Y R R I R R R R R R L R R R R R R R Y L @.x.g.W.@Xf X F P I I L L R ",
"P I I R R I R P R R I I I I I I Q | z.n.h.Y.c . P I I R R R R Y R R R R R R I R R R R R R R W R Y R { x.g.W.@Xg X G P I R L I R ",
"P I ] I R L R R I I I I R R R L ' @.x.b.T.Y.c . P I R I I R Y R L L I R I I I L I I I L R L L I L L { c.g.~.@Xf @ F P R R R P Q ",
"S S S S D D D D S D S S S S S S D ) d.n.T.I.c . S S D S D H S S S S S S S S S S S S S D S S D S S S / v.m.~.@Xg X # A D S S D D ",
". 6 X < @ + @ X < 6 @ @ @ + + + 6 ~ t.m.E.^.c   + @ < 6 < < @ + < @ + @ @ @ + + @ @ @ < < @ 6 @ < @ 8 u.w.~.OXc   @ + @ @ @ < @ ",
"$ $ $ % $ $ $ $ % o o o $ $ , & 2 4 1.q.E.Y.m $ o $ $ $ & $ & & $ $ $ $ $ $ $ & $ $ & & & O & & % & 4 2.e.(.@Xa o & & & & & & & "
};
